<?xml version="1.0" encoding="UTF-8"?>
<svg width="60px" height="60px" viewBox="0 0 60 60" version="1.1" xmlns="http://www.w3.org/2000/svg" xmlns:xlink="http://www.w3.org/1999/xlink">
    <!-- Generator: Sketch 53.2 (72643) - https://sketchapp.com -->
    <title>flogo-HexRBG-Wht-144</title>
    <desc>Created with Sketch.</desc>
    <g id="Portfolio-Layout" stroke="none" stroke-width="1" fill="none" fill-rule="evenodd">
        <g id="Main" transform="translate(-690.000000, -883.000000)" fill="#FFFFFF">
            <g id="Group-2" transform="translate(554.000000, 883.000000)">
                <g id="flogo-HexRBG-Wht-144" transform="translate(136.000000, 0.000000)">
                    <path d="M56.6875,0 L3.33333333,0 C1.49238417,-1.12725625e-16 2.2545125e-16,1.49238417 0,3.33333333 L0,56.7083333 C0.022809986,58.5329901 1.50853401,60.0001426 3.33333333,60 L32.0833333,60 L32.0833333,36.7958333 L24.2583333,36.7958333 L24.2583333,27.7166667 L32.05,27.7166667 L32.05,21.05 C32.05,13.3 36.7833333,9.07916667 43.7166667,9.07916667 C46.0506544,9.06986735 48.3833741,9.189494 50.7041667,9.4375 L50.7041667,17.5208333 L45.9,17.5208333 C42.15,17.5208333 41.425,19.3083333 41.425,21.9291667 L41.425,27.7166667 L50.4166667,27.7166667 L49.25,36.7958333 L41.425,36.7958333 L41.425,60 L56.6875,60 C58.5122132,59.9886307 59.9886307,58.5122132 60,56.6875 L60,3.33333333 C60.0000358,1.5004895 58.520308,0.0114552736 56.6875,0 Z" id="Path"></path>
                </g>
            </g>
        </g>
    </g>
</svg>