<svg xmlns="http://www.w3.org/2000/svg" width="190" height="259" viewBox="0 0 190 259">
    <g fill="none" fill-rule="evenodd" stroke-width="10" transform="translate(5 5)">
        <path stroke="#0084FF" stroke-linecap="round" d="M16.1 35c-10.8 39.579-10.8 65.965 0 79.158 16.2 19.79 48.6 19.79 64.8 0 10.8-13.193 10.8-39.58 0-79.158"/>
        <path stroke="#0084FF" stroke-linecap="round" d="M89.03 82.5c1.175 18.065 2.09 31.102 2.749 39.112 4.773 58.143 1.887 93.748-8.66 106.813-19.088 23.647-45.492 23.847-62.8 15.795-17.308-8.051-45.97-27.956 27.293-84.725C96.454 121.648 132.916 90.816 157 67M93 125l87 99"/>
        <circle cx="75" cy="9" r="9" stroke="#FA3C4C"/>
    </g>
</svg>
